<svg height="512" viewBox="0 0 32 32" width="512" xmlns="http://www.w3.org/2000/svg"><g id="_06-Fast-forward" data-name="06-Fast-forward"><path d="m28.87 13.59-10.82-9a2.47 2.47 0 0 0 -4.05 1.88v4.73l-7.95-6.63a2.47 2.47 0 0 0 -4 1.9v19.06a2.47 2.47 0 0 0 4.05 1.9l8-6.63v4.73a2.47 2.47 0 0 0 4.05 1.9l10.82-9a3.13 3.13 0 0 0 0-4.82zm-24.1 12.3a.48.48 0 0 1 -.77-.36v-19.06a.47.47 0 0 1 .47-.47.48.48 0 0 1 .3.11l9.23 7.69v4.4zm22.82-9-10.82 9a.48.48 0 0 1 -.77-.36v-19.06a.47.47 0 0 1 .47-.47.48.48 0 0 1 .3.11l10.82 9a1.13 1.13 0 0 1 0 1.74z"/></g></svg>