<svg height="512" viewBox="0 0 32 32" width="512" xmlns="http://www.w3.org/2000/svg"><g id="_07-Rewind" data-name="07-Rewind"><path d="m27.53 4a2.47 2.47 0 0 0 -1.53.57l-8 6.63v-4.73a2.47 2.47 0 0 0 -4-1.9l-10.82 9a3.13 3.13 0 0 0 0 4.82l10.82 9a2.47 2.47 0 0 0 4-1.86v-4.73l8 6.63a2.47 2.47 0 0 0 4-1.9v-19.06a2.48 2.48 0 0 0 -2.47-2.47zm-11.53 21.53a.48.48 0 0 1 -.77.36l-10.82-9a1.13 1.13 0 0 1 0-1.74l10.82-9a.48.48 0 0 1 .3-.11.47.47 0 0 1 .47.47zm12 0a.48.48 0 0 1 -.77.36l-9.23-7.69v-4.4l9.23-7.69a.48.48 0 0 1 .77.36z"/></g></svg>