<svg height="512" viewBox="0 0 32 32" width="512" xmlns="http://www.w3.org/2000/svg"><g id="_05-Back" data-name="05-Back"><path d="m7 2h-2a3 3 0 0 0 -3 3v22a3 3 0 0 0 3 3h2a3 3 0 0 0 3-3v-22a3 3 0 0 0 -3-3zm1 25a1 1 0 0 1 -1 1h-2a1 1 0 0 1 -1-1v-22a1 1 0 0 1 1-1h2a1 1 0 0 1 1 1z"/><path d="m26.84 2a3.17 3.17 0 0 0 -2.14.84l-11.64 10.75a3.27 3.27 0 0 0 0 4.82l11.64 10.75a3.16 3.16 0 0 0 5.3-2.32v-21.68a3.17 3.17 0 0 0 -3.16-3.16zm1.16 24.84a1.16 1.16 0 0 1 -1.16 1.16 1.13 1.13 0 0 1 -.78-.31l-11.65-10.75a1.28 1.28 0 0 1 0-1.88l11.65-10.75a1.13 1.13 0 0 1 .78-.31 1.16 1.16 0 0 1 1.16 1.16z"/></g></svg>